<svg width="21" height="22" viewBox="0 0 21 22" fill="none" xmlns="http://www.w3.org/2000/svg">
<g clip-path="url(#clip0_17_239)">
<path d="M20.1967 10.9702C20.1967 10.1226 20.1287 9.50401 19.9815 8.86255H10.4065V12.6884H16.0268C15.9135 13.6392 15.3016 15.071 13.9418 16.0332L13.9228 16.1613L16.9502 18.5321L17.1599 18.5533C19.0862 16.7549 20.1967 14.1088 20.1967 10.9702Z" fill="#4285F4"/>
<path d="M10.4065 21.0504C13.16 21.0504 15.4715 20.134 17.1599 18.5533L13.9418 16.0332C13.0807 16.6403 11.9249 17.0641 10.4065 17.0641C7.70967 17.0641 5.42076 15.2657 4.60483 12.7801L4.48524 12.7903L1.33728 15.2531L1.29611 15.3688C2.97313 18.7365 6.41785 21.0504 10.4065 21.0504Z" fill="#34A853"/>
<path d="M4.60484 12.7801C4.38955 12.1386 4.26495 11.4513 4.26495 10.7411C4.26495 10.0309 4.38955 9.34362 4.59351 8.70216L4.58781 8.56554L1.4004 6.0632L1.29611 6.11335C0.604936 7.51085 0.208336 9.08018 0.208336 10.7411C0.208336 12.4021 0.604936 13.9713 1.29611 15.3688L4.60484 12.7801Z" fill="#FBBC05"/>
<path d="M10.4065 4.41806C12.3215 4.41806 13.6132 5.25425 14.3498 5.95304L17.2279 3.11224C15.4603 1.4513 13.16 0.431824 10.4065 0.431824C6.41785 0.431824 2.97313 2.74567 1.29611 6.11335L4.59351 8.70216C5.42076 6.21648 7.70967 4.41806 10.4065 4.41806Z" fill="#EB4335"/>
</g>
<defs>
<clipPath id="clip0_17_239">
<rect width="20" height="20.6897" fill="white" transform="translate(0.207306 0.431824)"/>
</clipPath>
</defs>
</svg>
