<svg width="154" height="46" viewBox="0 0 154 46" fill="none" xmlns="http://www.w3.org/2000/svg">
<path d="M4.37976 43.8634C4.37976 45.0425 3.70748 45.632 2.36291 45.632C0.969457 45.632 0.272728 45.0425 0.272728 43.8634V28.6098C0.272728 26.5956 0.87167 25.1955 2.06956 24.4095C3.26744 23.6235 4.64867 23.2304 6.21326 23.2304H10.3936C11.2982 23.2304 11.7504 23.8077 11.7504 24.9621C11.7993 26.1166 11.3471 26.6938 10.3936 26.6938H6.50662C5.62654 26.6938 5.05204 26.8658 4.78313 27.2097C4.51422 27.5535 4.37976 28.0325 4.37976 28.6466V43.8634Z" fill="white"/>
<path d="M29.1523 39.5158C29.1523 40.1053 29.3357 40.658 29.7024 41.1738C30.0935 41.6896 30.7413 41.9475 31.6459 41.9475H36.2296C37.1341 41.9475 37.7697 41.7264 38.1364 41.2843C38.5276 40.8176 38.7232 40.2895 38.7232 39.7V39.2947C38.7232 38.1402 39.3954 37.563 40.74 37.563C42.0846 37.563 42.7569 38.1402 42.7569 39.2947V39.7368C42.7569 40.7685 42.5857 41.6159 42.2435 42.2791C41.9257 42.9423 41.4367 43.5196 40.7767 44.0108C39.481 44.9442 38.1853 45.4109 36.8897 45.4109H30.7291C29.4334 45.4109 28.1744 44.9442 26.9521 44.0108C26.3654 43.5196 25.9131 42.9055 25.5953 42.1686C25.2775 41.4071 25.1186 40.5351 25.1186 39.5526V29.0519C25.1186 27.0623 25.7298 25.5885 26.9521 24.6305C27.5633 24.1884 28.1867 23.8445 28.8223 23.5989C29.4823 23.3287 30.118 23.1936 30.7291 23.1936H36.8897C37.4764 23.1936 38.1242 23.3164 38.8332 23.562C39.5421 23.7831 40.2022 24.0902 40.8134 24.4832C41.4001 24.9007 41.8646 25.478 42.2068 26.2149C42.5735 26.9517 42.7569 27.8237 42.7569 28.8308V33.8049C42.7569 34.3698 42.5857 34.8733 42.2435 35.3155C41.9257 35.7576 41.3267 35.9787 40.4467 35.9787H32.5259C31.6459 35.9787 31.1814 35.4015 31.1325 34.247C31.1325 33.0925 31.597 32.5153 32.5259 32.5153H38.7598L38.7232 29.0887C38.7232 28.4747 38.5276 27.922 38.1364 27.4307C37.7697 26.9149 37.1341 26.657 36.2296 26.657H31.6459C30.7413 26.657 30.0935 26.9149 29.7024 27.4307C29.3357 27.922 29.1523 28.4747 29.1523 29.0887V39.5158Z" fill="white"/>
<path d="M69.6139 32.5153C70.225 32.5153 70.8729 32.6627 71.5574 32.9574C72.2663 33.2276 72.9264 33.5715 73.5375 33.9891H73.5009C74.1365 34.4558 74.6254 35.0576 74.9677 35.7945C75.3099 36.5314 75.4811 37.4156 75.4811 38.4473V39.5526C75.4811 41.5668 74.821 43.0529 73.5009 44.0108C72.8653 44.5021 72.2174 44.8582 71.5574 45.0793C70.8973 45.3004 70.2495 45.4109 69.6139 45.4109H63.38C62.7444 45.4109 62.0965 45.3004 61.4365 45.0793C60.7764 44.8582 60.1286 44.5021 59.493 44.0108C58.1728 43.0774 57.5128 41.5913 57.5128 39.5526V39.1105C57.5128 38.0543 58.1851 37.5384 59.5296 37.563C60.8986 37.563 61.5831 38.0788 61.5831 39.1105V39.5158C61.5831 40.1053 61.7665 40.658 62.1332 41.1738C62.4999 41.6896 63.1477 41.9475 64.0767 41.9475H68.9171C69.8461 41.9475 70.4939 41.6896 70.8606 41.1738C71.2273 40.658 71.4107 40.1053 71.4107 39.5158V38.4841C71.4107 38.1648 71.3618 37.8578 71.264 37.563C71.1907 37.2682 71.0562 37.0103 70.8606 36.7893C70.6651 36.5436 70.4084 36.3471 70.0906 36.1998C69.7728 36.0524 69.3816 35.9787 68.9171 35.9787H63.5633C62.3165 35.9787 61.0086 35.5365 59.6396 34.6523C58.344 33.8171 57.6961 32.3802 57.6961 30.3415V29.0887C57.6961 28.1062 57.8673 27.2465 58.2095 26.5096C58.5518 25.7482 59.0407 25.1341 59.6763 24.6674H59.6396C60.2508 24.2498 60.8986 23.9059 61.5831 23.6357C62.2677 23.3655 62.9277 23.2304 63.5633 23.2304H69.4305C70.0661 23.2304 70.714 23.3655 71.374 23.6357C72.0585 23.9059 72.7186 24.2498 73.3542 24.6674H73.3175C73.9531 25.1341 74.4421 25.7482 74.7843 26.5096C75.1266 27.2465 75.2977 28.1062 75.2977 29.0887V29.4203C75.2977 29.9362 75.1266 30.3169 74.7843 30.5625C74.4421 30.7836 73.9409 30.9064 73.2809 30.931C71.9363 30.9555 71.264 30.452 71.264 29.4203V29.1256C71.264 28.5115 71.0684 27.9588 70.6773 27.4676C70.3106 26.9518 69.675 26.6938 68.7705 26.6938H64.2234C63.3189 26.6938 62.671 26.9518 62.2799 27.4676C61.9132 27.9588 61.7298 28.5115 61.7298 29.1256V30.0099C61.7298 30.6485 61.9132 31.2257 62.2799 31.7416C62.671 32.2574 63.3189 32.5153 64.2234 32.5153H69.6139Z" fill="white"/>
<path d="M94.558 39.5158C94.558 40.1053 94.7414 40.658 95.1081 41.1738C95.4992 41.6896 96.147 41.9475 97.0516 41.9475H101.635C102.54 41.9475 103.175 41.7264 103.542 41.2843C103.933 40.8176 104.129 40.2895 104.129 39.7V39.2947C104.129 38.1402 104.801 37.563 106.146 37.563C107.49 37.563 108.163 38.1402 108.163 39.2947V39.7368C108.163 40.7685 107.991 41.6159 107.649 42.2791C107.331 42.9423 106.842 43.5196 106.182 44.0108C104.887 44.9442 103.591 45.4109 102.295 45.4109H96.1348C94.8391 45.4109 93.5801 44.9442 92.3578 44.0108C91.7711 43.5196 91.3188 42.9055 91.001 42.1686C90.6832 41.4071 90.5243 40.5351 90.5243 39.5526V29.0519C90.5243 27.0623 91.1355 25.5885 92.3578 24.6305C92.969 24.1884 93.5924 23.8445 94.228 23.5989C94.888 23.3287 95.5236 23.1936 96.1348 23.1936H102.295C102.882 23.1936 103.53 23.3164 104.239 23.562C104.948 23.7831 105.608 24.0902 106.219 24.4832C106.806 24.9007 107.27 25.478 107.613 26.2149C107.979 26.9517 108.163 27.8237 108.163 28.8308V33.8049C108.163 34.3698 107.991 34.8733 107.649 35.3155C107.331 35.7576 106.732 35.9787 105.852 35.9787H97.9316C97.0516 35.9787 96.5871 35.4015 96.5382 34.247C96.5382 33.0925 97.0027 32.5153 97.9316 32.5153H104.166L104.129 29.0887C104.129 28.4747 103.933 27.922 103.542 27.4307C103.175 26.9149 102.54 26.657 101.635 26.657H97.0516C96.147 26.657 95.4992 26.9149 95.1081 27.4307C94.7414 27.922 94.558 28.4747 94.558 29.0887V39.5158Z" fill="white"/>
<path d="M127.906 26.6938V40.1053C127.906 40.7439 128.04 41.2352 128.309 41.5791C128.578 41.923 129.152 42.0949 130.032 42.0949H130.986C131.939 42.0949 132.392 42.6598 132.343 43.7897C132.343 44.9442 131.89 45.5214 130.986 45.5214H129.776C128.993 45.5214 128.26 45.4232 127.576 45.2267C126.891 45.0056 126.231 44.6986 125.595 44.3056V44.3424C124.398 43.5564 123.799 42.1563 123.799 40.1421V26.6938H122.368C121.488 26.6938 121.024 26.1166 120.975 24.9621C120.975 23.8077 121.439 23.2304 122.368 23.2304H123.799V19.2881C123.799 18.109 124.495 17.5195 125.889 17.5195C127.233 17.5195 127.906 18.109 127.906 19.2881V23.2304H130.949C131.903 23.2304 132.355 23.8077 132.306 24.9621C132.306 26.1166 131.854 26.6938 130.949 26.6938H127.906Z" fill="white"/>
<path d="M141.618 4.38834H146.245C147.294 4.38834 147.969 4.59488 148.306 5.00797C148.624 5.42106 148.793 5.98436 148.793 6.71665V16.4805H153.682V6.66032C153.682 4.27568 152.97 2.60455 151.546 1.66572C150.104 0.745662 148.456 0.276245 146.601 0.276245H141.618C140.551 0.276245 140.007 0.970982 140.007 2.34168C139.951 3.71238 140.476 4.38834 141.618 4.38834Z" fill="#4AD5FF"/>
<path d="M134.8 10.0026H139.427C140.476 10.0026 141.15 10.2091 141.487 10.6222C141.806 11.0353 141.974 11.5986 141.974 12.3309V22.0948H146.863V12.2746C146.863 9.88991 146.152 8.21878 144.728 7.27995C143.304 6.34111 141.656 5.8717 139.801 5.8717H134.8C133.732 5.8717 133.189 6.56644 133.189 7.93713C133.133 9.30783 133.676 10.0026 134.8 10.0026Z" fill="#4AD5FF"/>
</svg>
